<svg xmlns="http://www.w3.org/2000/svg" xmlns:xlink="http://www.w3.org/1999/xlink" width="375" zoomAndPan="magnify" viewBox="0 0 281.25 56.249996" height="75" preserveAspectRatio="xMidYMid meet" version="1.0"><defs><g/><clipPath id="039df60b4e"><path d="M 58 0 L 276 0 L 276 55.511719 L 58 55.511719 Z M 58 0 " clip-rule="nonzero"/></clipPath><clipPath id="2dec7d8ddc"><path d="M 0.324219 11 L 33 11 L 33 50 L 0.324219 50 Z M 0.324219 11 " clip-rule="nonzero"/></clipPath><clipPath id="9a75acd59e"><rect x="0" width="218" y="0" height="56"/></clipPath><clipPath id="04cfd7d00d"><path d="M 8.417969 4.425781 L 49.863281 4.425781 L 49.863281 42 L 8.417969 42 Z M 8.417969 4.425781 " clip-rule="nonzero"/></clipPath></defs><g clip-path="url(#039df60b4e)"><g transform="matrix(1, 0, 0, 1, 58, 0.000000000000004134)"><g clip-path="url(#9a75acd59e)"><g clip-path="url(#2dec7d8ddc)"><g fill="#2563eb" fill-opacity="1"><g transform="translate(0.33892, 49.172436)"><g><path d="M 0 -37.53125 L 10.734375 -37.53125 L 10.734375 -21.4375 L 21.4375 -21.4375 L 21.4375 -37.53125 L 32.15625 -37.53125 L 32.15625 0 L 21.4375 0 L 21.4375 -16.0625 L 10.734375 -16.0625 L 10.734375 0 L 0 0 Z M 0 -37.53125 "/></g></g></g></g><g fill="#2563eb" fill-opacity="1"><g transform="translate(37.376391, 49.172436)"><g><path d="M 0 -21.4375 L 5.359375 -21.4375 L 5.359375 -32.15625 L 10.734375 -32.15625 L 10.734375 -37.53125 L 21.4375 -37.53125 L 21.4375 -32.15625 L 26.796875 -32.15625 L 26.796875 -21.4375 L 32.15625 -21.4375 L 32.15625 0 L 21.4375 0 L 21.4375 -10.734375 L 10.734375 -10.734375 L 10.734375 0 L 0 0 Z M 10.734375 -16.09375 L 21.4375 -16.09375 L 21.4375 -26.796875 L 10.734375 -26.796875 Z M 10.734375 -16.09375 "/></g></g></g><g fill="#2563eb" fill-opacity="1"><g transform="translate(74.413862, 49.172436)"><g><path d="M 5.359375 -5.359375 L 0 -5.359375 L 0 -37.53125 L 10.734375 -37.53125 L 10.734375 -5.359375 L 21.4375 -5.359375 L 21.4375 -37.53125 L 32.15625 -37.53125 L 32.15625 -5.359375 L 26.796875 -5.359375 L 26.796875 0 L 5.359375 0 Z M 5.359375 -5.359375 "/></g></g></g><g fill="#2563eb" fill-opacity="1"><g transform="translate(111.451333, 49.172436)"><g><path d="M 10.734375 -5.359375 L 26.796875 -5.359375 L 26.796875 0 L 0 0 L 0 -37.53125 L 26.796875 -37.53125 L 26.796875 -32.15625 L 10.734375 -32.15625 L 10.734375 -21.4375 L 26.796875 -21.4375 L 26.796875 -16.0625 L 10.734375 -16.0625 Z M 10.734375 -5.359375 "/></g></g></g><g fill="#2563eb" fill-opacity="1"><g transform="translate(143.125089, 49.172436)"><g><path d="M 10.734375 -21.4375 L 21.453125 -21.4375 L 21.453125 -32.15625 L 10.734375 -32.15625 Z M 10.734375 -16.0625 L 10.734375 0 L 0 0 L 0 -37.53125 L 26.796875 -37.53125 L 26.796875 -32.15625 L 32.15625 -32.15625 L 32.15625 -21.4375 L 26.796875 -21.4375 L 26.796875 -16.0625 L 32.15625 -16.0625 L 32.15625 0 L 21.4375 0 L 21.4375 -16.0625 Z M 10.734375 -16.0625 "/></g></g></g><g fill="#2563eb" fill-opacity="1"><g transform="translate(180.16256, 49.172436)"><g><path d="M 5.359375 -5.359375 L 0 -5.359375 L 0 -10.734375 L 10.734375 -10.734375 L 10.734375 -5.359375 L 21.4375 -5.359375 L 21.4375 -16.0625 L 5.359375 -16.0625 L 5.359375 -21.4375 L 0 -21.4375 L 0 -32.15625 L 5.359375 -32.15625 L 5.359375 -37.53125 L 26.796875 -37.53125 L 26.796875 -32.15625 L 32.15625 -32.15625 L 32.15625 -26.796875 L 21.4375 -26.796875 L 21.4375 -32.15625 L 10.734375 -32.15625 L 10.734375 -21.4375 L 26.796875 -21.4375 L 26.796875 -16.0625 L 32.15625 -16.0625 L 32.15625 -5.359375 L 26.796875 -5.359375 L 26.796875 0 L 5.359375 0 Z M 5.359375 -5.359375 "/></g></g></g></g></g></g><path fill="#f5a623" d="M 24.757812 29.777344 L 32.84375 29.777344 C 32.878906 29.777344 32.914062 29.777344 32.949219 29.78125 L 34.890625 27.425781 L 22.707031 27.425781 L 24.652344 29.78125 C 24.6875 29.777344 24.722656 29.777344 24.757812 29.777344 Z M 24.757812 29.777344 " fill-opacity="1" fill-rule="nonzero"/><path fill="#f5a623" d="M 21.941406 20.527344 L 21.941406 26.058594 L 35.65625 26.058594 L 35.65625 20.527344 L 33.621094 20.527344 L 33.621094 22.695312 C 33.621094 23.074219 33.316406 23.378906 32.9375 23.378906 L 30.5 23.378906 C 30.121094 23.378906 29.816406 23.074219 29.816406 22.695312 L 29.816406 20.527344 L 27.78125 20.527344 L 27.78125 22.695312 C 27.78125 23.074219 27.476562 23.378906 27.097656 23.378906 L 24.660156 23.378906 C 24.285156 23.378906 23.976562 23.074219 23.976562 22.695312 L 23.976562 20.527344 Z M 21.941406 20.527344 " fill-opacity="1" fill-rule="nonzero"/><path fill="#f5a623" d="M 18.578125 48.394531 L 18.578125 49.957031 L 39.46875 49.957031 L 39.46875 48.394531 C 39.46875 47.53125 38.765625 46.828125 37.90625 46.828125 L 20.144531 46.828125 C 19.28125 46.828125 18.578125 47.53125 18.578125 48.394531 Z M 18.578125 48.394531 " fill-opacity="1" fill-rule="nonzero"/><path fill="#f5a623" d="M 22.355469 43.65625 L 21.957031 43.65625 C 21.460938 43.65625 21.054688 44.0625 21.054688 44.558594 C 21.054688 45.054688 21.460938 45.460938 21.957031 45.460938 L 36.09375 45.460938 C 36.589844 45.460938 36.996094 45.054688 36.996094 44.558594 C 36.996094 44.058594 36.589844 43.65625 36.09375 43.65625 L 35.695312 43.65625 C 35.691406 43.65625 35.691406 43.65625 35.691406 43.65625 L 22.359375 43.65625 C 22.359375 43.65625 22.359375 43.65625 22.355469 43.65625 Z M 22.355469 43.65625 " fill-opacity="1" fill-rule="nonzero"/><path fill="#f5a623" d="M 34.59375 42.289062 C 33.394531 39.722656 32.714844 37.105469 32.527344 34.339844 L 25.519531 34.339844 C 25.335938 37.113281 24.65625 39.726562 23.457031 42.289062 Z M 34.59375 42.289062 " fill-opacity="1" fill-rule="nonzero"/><g clip-path="url(#04cfd7d00d)"><path fill="#2563eb" d="M 48.488281 22.128906 L 45.339844 21.042969 C 45.128906 20.96875 44.964844 20.796875 44.90625 20.582031 C 44.550781 19.3125 44.042969 18.085938 43.394531 16.933594 C 43.285156 16.738281 43.277344 16.5 43.375 16.300781 L 44.835938 13.304688 C 45.160156 12.640625 45.035156 11.90625 44.511719 11.386719 L 42.664062 9.53125 C 42.140625 9.011719 41.40625 8.890625 40.742188 9.210938 L 37.75 10.671875 C 37.546875 10.769531 37.308594 10.761719 37.113281 10.652344 C 35.957031 10 34.730469 9.492188 33.464844 9.140625 C 33.25 9.078125 33.074219 8.917969 33.003906 8.703125 L 31.917969 5.558594 C 31.679688 4.859375 31.070312 4.425781 30.332031 4.425781 L 27.714844 4.425781 C 26.980469 4.425781 26.371094 4.859375 26.128906 5.558594 L 25.046875 8.703125 C 24.976562 8.917969 24.800781 9.078125 24.585938 9.140625 C 23.320312 9.492188 22.09375 10 20.9375 10.652344 C 20.742188 10.761719 20.503906 10.769531 20.300781 10.671875 L 17.308594 9.210938 C 16.644531 8.890625 15.910156 9.011719 15.386719 9.53125 L 13.539062 11.386719 C 13.015625 11.90625 12.890625 12.640625 13.214844 13.304688 L 14.675781 16.300781 C 14.773438 16.5 14.765625 16.738281 14.65625 16.933594 C 14.007812 18.085938 13.5 19.3125 13.144531 20.578125 C 13.085938 20.796875 12.921875 20.96875 12.710938 21.042969 L 9.5625 22.128906 C 8.863281 22.371094 8.429688 22.976562 8.429688 23.714844 L 8.429688 26.332031 C 8.429688 27.066406 8.863281 27.675781 9.558594 27.914062 L 12.710938 29 C 12.921875 29.074219 13.085938 29.246094 13.144531 29.460938 C 13.5 30.730469 14.007812 31.957031 14.65625 33.109375 C 14.765625 33.304688 14.773438 33.542969 14.675781 33.742188 L 13.214844 36.738281 C 12.894531 37.402344 13.015625 38.136719 13.539062 38.660156 L 15.386719 40.511719 C 15.910156 41.03125 16.644531 41.15625 17.308594 40.832031 L 20.300781 39.371094 C 20.503906 39.273438 20.742188 39.277344 20.9375 39.390625 C 21.542969 39.730469 22.171875 40.035156 22.820312 40.300781 C 23.207031 39.296875 23.507812 38.285156 23.734375 37.253906 C 23.832031 36.792969 23.917969 36.332031 23.984375 35.863281 C 19.816406 33.917969 17.070312 29.664062 17.070312 25.019531 C 17.070312 18.429688 22.433594 13.066406 29.023438 13.066406 C 35.617188 13.066406 40.980469 18.429688 40.980469 25.019531 C 40.980469 29.664062 38.234375 33.921875 34.066406 35.867188 C 34.132812 36.332031 34.21875 36.792969 34.316406 37.253906 C 34.539062 38.28125 34.84375 39.296875 35.230469 40.300781 C 35.878906 40.035156 36.511719 39.730469 37.113281 39.390625 C 37.308594 39.277344 37.546875 39.273438 37.75 39.371094 L 40.742188 40.832031 C 41.40625 41.15625 42.140625 41.03125 42.664062 40.511719 L 44.511719 38.660156 C 45.035156 38.136719 45.15625 37.402344 44.835938 36.738281 L 43.375 33.742188 C 43.277344 33.542969 43.285156 33.304688 43.394531 33.109375 C 44.042969 31.957031 44.550781 30.730469 44.90625 29.460938 C 44.964844 29.246094 45.128906 29.074219 45.339844 29 L 48.492188 27.914062 C 49.1875 27.675781 49.621094 27.070312 49.621094 26.332031 L 49.621094 23.714844 C 49.621094 22.976562 49.1875 22.371094 48.488281 22.128906 Z M 48.488281 22.128906 " fill-opacity="1" fill-rule="nonzero"/></g><path fill="#f5a623" d="M 24.757812 32.96875 L 32.84375 32.96875 C 32.902344 32.96875 32.957031 32.964844 33.011719 32.953125 C 33.019531 32.953125 33.027344 32.949219 33.035156 32.949219 C 33.445312 32.859375 33.753906 32.496094 33.753906 32.054688 C 33.753906 31.554688 33.34375 31.144531 32.84375 31.144531 L 24.757812 31.144531 C 24.25 31.144531 23.84375 31.554688 23.84375 32.054688 C 23.84375 32.558594 24.25 32.96875 24.757812 32.96875 Z M 24.757812 32.96875 " fill-opacity="1" fill-rule="nonzero"/></svg>